<?xml version="1.0" encoding="utf-8"?>
<!-- Generator: Adobe Illustrator 14.0.0, SVG Export Plug-In . SVG Version: 6.00 Build 43363)  -->
<!DOCTYPE svg PUBLIC "-//W3C//DTD SVG 1.1//EN" "http://www.w3.org/Graphics/SVG/1.1/DTD/svg11.dtd">
<svg version="1.1" id="Layer_1" xmlns="http://www.w3.org/2000/svg" xmlns:xlink="http://www.w3.org/1999/xlink" x="0px" y="0px"
	 width="595.28px" height="841.89px" viewBox="0 0 595.28 841.89" enable-background="new 0 0 595.28 841.89" xml:space="preserve">
<rect x="55.696" y="112.076" transform="matrix(0.9999 -0.0131 0.0131 0.9999 -2.8486 4.0884)" fill="none" width="511.237" height="215.73"/>
<g>
	
		<ellipse fill="none" stroke="#603913" stroke-width="3" stroke-linecap="round" stroke-linejoin="bevel" stroke-miterlimit="12" stroke-dasharray="1,10" cx="309.07" cy="400.25" rx="232.93" ry="114"/>
	
		<path fill="none" stroke="#603913" stroke-width="3" stroke-linecap="round" stroke-linejoin="bevel" stroke-miterlimit="12" stroke-dasharray="1,10" d="
		M77.5,402.524C152,398.5,211.611,355.275,270.5,288"/>
	
		<line fill="none" stroke="#603913" stroke-width="3" stroke-linecap="round" stroke-linejoin="bevel" stroke-miterlimit="12" x1="77.5" y1="402.524" x2="539.35" y2="402.524"/>
	
		<path fill="#5F5CA9" stroke="#603913" stroke-width="2" stroke-linecap="round" stroke-linejoin="bevel" stroke-miterlimit="12" d="
		M198.383,401.591c0,0,23.777-8.17,24.332-32.175c0.175-7.556-0.877-9.729-3.497-16.376l-1.166-2.229
		c-1.396-0.119-3.658,1.687-14.466,11.997c-5.038,4.806-12.725,13.375-15.607,17.856c0,0-11.566-6.057-4.118-31.944
		c0,0-17.683,7.707-25.823,21.806c-8.173,14.152-5.454,17.636-8.755,29.9c-2.625,9.745-0.911,16.275-0.911,16.275
		s-11.608-37.343,7.184-57.868c14.069-15.366,24.615-16.942,30.249-20.984l4.662,4.181c0,0,3.13,1.941,2.743,5.113
		c-0.461,3.775-5.251,21.861-5.251,21.861c17.855-22.653,29.329-27.136,34.951-29.622l3.108,3.902
		c14.376,32.473-5.421,49.857-12.117,53.296C209.216,398.987,198.383,401.591,198.383,401.591z M278.546,371
		c-6.979,4.482-33.058,26.345-33.058,26.345l-11.274,5.1c0,0,6.464-17.797,14.64-30.314c21.331-32.653,50.653-35.69,50.653-35.69
		s14.287,12.291,10.761,29.12c-5.421,25.865-19.381,32.354-19.381,32.354l-15.292,4.87c0,0,8.503-7.693,15.027-15.264
		c9.955-11.551,10.244-21.021,10.244-21.021S292.169,362.25,278.546,371z M266.951,371c15.073-11.75,22.484-12.075,34.495-11.75
		c0,0,1.949-2.958-2.029-10l-3.478-3.988c-2.598-0.053-16.795,2.683-29.83,14.085c-5.67,4.961-10.544,11.832-20.609,30.403
		C245.5,389.75,259.313,376.954,266.951,371z M335.292,363.556c26.739-31.556,56.204-27.855,56.204-27.855
		c5.805,3.017,7.73,11.688,6.156,18.799c-1.857,8.387-10.402,15-10.402,15s-13.826-7.082-24.85-2.859
		c-16.603,6.359-35.457,30.376-35.457,30.376l-16.115,6.507C310.828,403.524,316.938,385.217,335.292,363.556z M323.367,391.609
		c1.716,0.533,9.064-10.641,25.563-24.08c17.835-14.529,38.32-7.029,38.32-7.029s3.476-2.754,3.735-9
		c0.323-7.75-2.574-9.25-2.574-9.25c-15.655-1-31.831,8.575-39.714,15.5C331.869,372.531,323.367,391.609,323.367,391.609z
		 M404.302,394.926c7.878,4.308,19.095,6.274,29.918,0.77c22.832-11.614,23.387-28.932,23.387-28.932
		c4.13,0.915-23.396-14.514-52.209,24.708c-1.896,0.816-11.755,4.927-11.755,4.927s13.246-36.902,37.397-52.879
		c14.766-9.77,34.549-8.185,44.044-8.185l-6.378,4.916c0,0-17.973-2.5-33.336,7c-12.319,7.618-18.218,16.419-30.651,36.303
		c0,0,13.549-15.553,24.274-21.053c16.034-8.222,38.12-2.878,38.12-2.878s1.294,35.756-35.381,45.703
		c-21.189,5.749-34.263-3.036-38.09-5.23L404.302,394.926z"/>
	
		<path fill="none" stroke="#603913" stroke-width="3" stroke-linecap="round" stroke-linejoin="bevel" stroke-miterlimit="12" stroke-dasharray="1,10" d="
		M77.5,402.524C169.5,415.701,209,447,220.923,505"/>
	
		<path fill="#5F5CA9" stroke="#603913" stroke-width="3" stroke-linecap="round" stroke-linejoin="bevel" stroke-miterlimit="12" d="
		M284.5,288c0,7.18-5.82,13-13,13s-13-5.82-13-13s5.82-13,13-13S284.5,280.82,284.5,288z M220.923,491c-7.732,0-14,6.268-14,14
		s6.268,14,14,14c10.398,0,14-6.266,14-14C234.923,499.933,228.655,491,220.923,491z M78.5,389.274
		c-7.318,0-13.25,5.932-13.25,13.25c0,7.317,5.932,13.25,13.25,13.25s13.25-5.933,13.25-13.25
		C91.75,395.206,85.818,389.274,78.5,389.274z M540.35,388.901c-7.524,0-13.624,6.1-13.624,13.624c0,7.524,6.1,13.623,13.624,13.623
		c7.523,0,13.623-6.099,13.623-13.623C553.973,395,547.873,388.901,540.35,388.901z"/>
</g>
</svg>
