<?xml version="1.0" encoding="UTF-8" standalone="no"?>
<!-- Created with Inkscape (http://www.inkscape.org/) -->

<svg
   xmlns:dc="http://purl.org/dc/elements/1.1/"
   xmlns:cc="http://creativecommons.org/ns#"
   xmlns:rdf="http://www.w3.org/1999/02/22-rdf-syntax-ns#"
   xmlns:svg="http://www.w3.org/2000/svg"
   xmlns="http://www.w3.org/2000/svg"
   xmlns:xlink="http://www.w3.org/1999/xlink"
   xmlns:sodipodi="http://sodipodi.sourceforge.net/DTD/sodipodi-0.dtd"
   xmlns:inkscape="http://www.inkscape.org/namespaces/inkscape"
   width="1920px"
   height="1080px"
   id="svg4452"
   version="1.1"
   inkscape:version="0.48.2 r9819"
   sodipodi:docname="New document 2">
  <defs
     id="defs4454">
    <clipPath
       clipPathUnits="userSpaceOnUse"
       id="clipPath20">
      <path
         inkscape:connector-curvature="0"
         d="M 0,934.199 0,0 l 3985.08,0 0,934.199 -3985.08,0 z"
         id="path22" />
    </clipPath>
    <path
       style="fill:none;stroke:#000000;stroke-width:1px;stroke-linecap:butt;stroke-linejoin:miter;stroke-opacity:1"
       d="M -1.3856442,307.39317 C 133.59097,337.22322 520.27978,177.83921 756.83426,196.3253"
       id="path5271"
       sodipodi:nodetypes="cc"
       inkscape:connector-curvature="0" />
    <path
       style="fill:none;stroke:#000000;stroke-width:1px;stroke-linecap:butt;stroke-linejoin:miter;stroke-opacity:1"
       d="M -1.3856442,307.39317 C 133.59097,337.22322 520.27978,177.83921 756.83426,196.3253"
       id="path5271-2"
       sodipodi:nodetypes="cc"
       inkscape:connector-curvature="0" />
  </defs>
  <sodipodi:namedview
     id="base"
     pagecolor="#ffffff"
     bordercolor="#666666"
     borderopacity="1.0"
     inkscape:pageopacity="0.0"
     inkscape:pageshadow="2"
     inkscape:zoom="0.22456165"
     inkscape:cx="677.87052"
     inkscape:cy="500.87922"
     inkscape:document-units="px"
     inkscape:current-layer="layer4"
     showgrid="false"
     inkscape:window-width="1366"
     inkscape:window-height="687"
     inkscape:window-x="0"
     inkscape:window-y="26"
     inkscape:window-maximized="1" />
  <metadata
     id="metadata4457">
    <rdf:RDF>
      <cc:Work
         rdf:about="">
        <dc:format>image/svg+xml</dc:format>
        <dc:type
           rdf:resource="http://purl.org/dc/dcmitype/StillImage" />
        <dc:title></dc:title>
      </cc:Work>
    </rdf:RDF>
  </metadata>
  <g
     id="layer1"
     inkscape:label="Layer 1"
     inkscape:groupmode="layer"
     sodipodi:insensitive="true">
    <path
       style="fill:#007a00;fill-opacity:1;stroke:#000000;stroke-width:1.00565636px;stroke-linecap:butt;stroke-linejoin:miter;stroke-opacity:1;display:inline"
       d="m 1917.4963,1080.8502 c -252.3758,-0.168 -1650.61077,4.0612 -1912.7387393,4.2336 L 5.3290407,-15.316454 1927.8966,-2.9584137 z"
       id="path3853"
       inkscape:connector-curvature="0"
       sodipodi:nodetypes="ccccc"
       inkscape:export-xdpi="90"
       inkscape:export-ydpi="90" />
  </g>
  <g
     inkscape:groupmode="layer"
     id="layer4"
     inkscape:label="motiv">
    <g
       transform="matrix(-0.02423885,1.4510122,1.5110593,0.02327563,840.19889,-13.151515)"
       style="display:inline"
       id="g3293">
      <path
         sodipodi:nodetypes="cszccssscc"
         inkscape:connector-curvature="0"
         id="path3047"
         d="M -0.61509418,448.27437 C 20.786406,452.63376 44.330726,467.02983 61.199406,456.47273 197.20686,371.35382 292.71053,425.47551 411.16235,428.4258 c 118.45182,2.9503 234.96326,-106.81664 338.5925,-92.98975 l -3.81071,355.12116 C 668.38883,649.6064 572.57903,619.98957 542.10115,607.59822 376.16168,540.13241 326.59299,583.69787 227.75383,596.77116 c -46.7586,6.18468 -97.6446,-11.79672 -155.177424,-53.32448 -21.258,-15.34423 -51.177,11.33605 -78.2962002,16.60407 z"
         style="fill:#0000ff;stroke:#000000;stroke-width:5;stroke-linecap:butt;stroke-linejoin:miter;stroke-miterlimit:4;stroke-opacity:1;stroke-dasharray:none;display:inline" />
      <path
         sodipodi:nodetypes="cscsc"
         inkscape:transform-center-y="-54.085342"
         inkscape:transform-center-x="-10.817068"
         inkscape:connector-curvature="0"
         id="path3817-2"
         d="m 441.09018,475.17373 c -12.43386,15.89027 -15.04289,64.32363 48.62281,71.24093 71.64677,7.78445 250.50263,51.01548 261.04702,80.83532 -1.36976,-17.60474 5.02529,-158.48772 -1.47448,-211.97865 -6.45411,-53.11514 -221.14841,12.73664 -308.19535,59.9024 z"
         style="fill:#007a00;fill-opacity:1;stroke:#000000;stroke-width:5;stroke-linecap:butt;stroke-linejoin:miter;stroke-miterlimit:4;stroke-opacity:1;stroke-dasharray:none;display:inline" />
      <path
         sodipodi:nodetypes="ccc"
         inkscape:transform-center-y="-54.085342"
         inkscape:transform-center-x="-15.977326"
         inkscape:connector-curvature="0"
         id="path3817"
         d="M 93.857196,502.35971 C 203.29529,579.41227 290.63614,560.40853 378.78616,478.92273 283.80984,459.97615 188.83353,416.31809 93.857196,502.35971 z"
         style="fill:#007a00;fill-opacity:1;stroke:#000000;stroke-width:5;stroke-linecap:butt;stroke-linejoin:miter;stroke-miterlimit:4;stroke-opacity:1;stroke-dasharray:none;display:inline" />
      <path
         sodipodi:nodetypes="cccc"
         inkscape:connector-curvature="0"
         id="path3927-7"
         d="m 343.80201,508.27903 c 5.60828,-19.68879 -0.69103,-31.86751 6.12886,-43.63679 75.17001,12.96327 132.13652,-23.01438 107.12627,50.15158 l -113.25513,-6.51479 z"
         style="fill:#aa4400;stroke:#000000;stroke-width:5;stroke-linecap:butt;stroke-linejoin:miter;stroke-miterlimit:4;stroke-opacity:1;stroke-dasharray:none;display:inline" />
      <path
         sodipodi:nodetypes="ccccc"
         inkscape:connector-curvature="0"
         id="path3927-7-2-8"
         d="m 266.87299,471.74335 c 18.13641,-12.36553 30.10179,-3.07475 54.68389,0.89856 l 11.23159,-85.34777 c -39.41621,-5.68888 -36.98906,-6.15267 -66.50429,-7.85816 0.41567,29.74374 -10.84011,60.72809 0.58881,92.30737 z"
         style="fill:#aa4400;stroke:#000000;stroke-width:5;stroke-linecap:butt;stroke-linejoin:miter;stroke-miterlimit:4;stroke-opacity:1;stroke-dasharray:none;display:inline" />
      <path
         sodipodi:nodetypes="ccccc"
         inkscape:connector-curvature="0"
         id="path3927-7-2"
         d="m 276.67725,536.04832 c 41.47646,-47.65176 40.31353,-18.09801 64.89563,-22.07132 l -0.93188,94.3538 c -39.41621,5.68888 -33.5989,-20.00042 -63.11413,-18.29493 l -0.84962,-53.98755 z"
         style="fill:#aa4400;stroke:#000000;stroke-width:5;stroke-linecap:butt;stroke-linejoin:miter;stroke-miterlimit:4;stroke-opacity:1;stroke-dasharray:none;display:inline" />
      <path
         sodipodi:nodetypes="ccccc"
         inkscape:connector-curvature="0"
         id="path3927-7-2-4"
         d="m 123.64571,506.18116 c 18.86254,9.94511 -2.37866,6.90471 77.66114,21.48159 -23.29242,18.15895 -16.57088,48.32349 -12.5066,77.42512 -39.41621,5.68888 -41.49452,1.59382 -72.51158,-7.21346 -4.87061,-23.73918 1.20361,-66.11672 7.35704,-91.69325 z"
         style="fill:#aa4400;stroke:#000000;stroke-width:5;stroke-linecap:butt;stroke-linejoin:miter;stroke-miterlimit:4;stroke-opacity:1;stroke-dasharray:none;display:inline" />
      <path
         inkscape:transform-center-y="-13.516419"
         inkscape:transform-center-x="-40.549257"
         sodipodi:nodetypes="ccccc"
         inkscape:connector-curvature="0"
         id="path3927-7-2-8-0"
         d="m 138.91562,481.80809 c 18.13641,-12.36553 40.61456,4.43437 65.94757,-6.61056 L 192.8165,392.10249 c -39.41621,-5.68888 -61.64948,8.11466 -68.86376,15.96672 0.98276,20.32446 9.51892,66.79803 14.96288,73.73888 z"
         style="fill:#aa4400;stroke:#000000;stroke-width:5;stroke-linecap:butt;stroke-linejoin:miter;stroke-miterlimit:4;stroke-opacity:1;stroke-dasharray:none;display:inline" />
      <path
         inkscape:transform-center-y="48.000835"
         inkscape:transform-center-x="-46.65654"
         sodipodi:nodetypes="ccccc"
         inkscape:connector-curvature="0"
         id="path3927-0"
         d="m 559.57494,446.20733 c -19.04518,6.93344 -48.75923,-3.3975 -71.65108,6.01997 l 4.36659,-72.72217 c 24.04642,-17.33407 32.55804,-10.44963 75.93919,-23.78862 l -8.6547,90.49082 z"
         style="fill:#aa4400;stroke:#000000;stroke-width:5;stroke-linecap:butt;stroke-linejoin:miter;stroke-miterlimit:4;stroke-opacity:1;stroke-dasharray:none;display:inline" />
      <path
         sodipodi:nodetypes="cccc"
         inkscape:connector-curvature="0"
         id="path3927"
         d="m 578.75471,625.40141 c -7.79534,5.4858 -24.87863,12.26725 -59.64769,-13.52135 -25.99809,-98.32442 -22.41847,-86.48239 44.95228,-55.94129 z"
         style="fill:#aa4400;stroke:#000000;stroke-width:5;stroke-linecap:butt;stroke-linejoin:miter;stroke-miterlimit:4;stroke-opacity:1;stroke-dasharray:none;display:inline" />
    </g>
    <g
       style="display:inline"
       id="g3305"
       transform="matrix(-0.02423885,1.4510122,1.5110593,0.02327563,901.30851,837.65555)">
      <path
         inkscape:transform-center-y="9.915646"
         inkscape:transform-center-x="-9.0142237"
         inkscape:connector-curvature="0"
         id="path3795"
         d="m -82.703854,449.6586 -16.65495,32.57075 -0.953706,-7.93064 -10.04945,3.92493 25.415096,-32.85263"
         style="fill:#ff0000;stroke:#000000;stroke-width:2.30299997;stroke-linecap:butt;stroke-linejoin:miter;stroke-miterlimit:4;stroke-opacity:1;stroke-dasharray:none;display:inline" />
      <path
         sodipodi:nodetypes="aaaaaaaaaaaasssssssaasca"
         inkscape:connector-curvature="0"
         id="path2998"
         d="m -475.26349,322.61306 c 11.618,32.06546 48.80381,53.27576 53.83447,87.00799 6.01723,40.34748 -36.6379,77.89803 -31.22399,118.33088 3.61615,27.00655 20.28118,52.97021 40.9142,70.76651 10.25237,8.84283 24.27302,13.84517 37.76724,14.94643 36.93394,3.01418 79.65669,-0.51002 108.63481,-23.60699 20.31817,-16.19456 30.32508,-44.72833 33.12325,-70.55975 1.92167,-17.74002 -9.3391,-34.53763 -11.84358,-52.2048 -5.16505,-36.43549 -24.66041,-78.22617 -6.46014,-110.21012 14.12243,-24.81782 47.54228,-38.38916 76.08001,-39.37181 39.86971,-1.37285 99.716036,6.47181 109.822306,47.56437 3.40274,13.83566 -20.01934,20.27392 -24.76385,33.64309 -6.42069,18.09231 -16.582036,54.67995 -3.23007,58.00533 30.9499,7.70823 64.58938,-18.19219 61.3713,-47.56437 -2.30172,-21.0084 11.9187,-35.20297 6.52474,-50.60253 -13.3623,-38.1488 -20.9539,-56.72285 -53.89908,-73.52889 -46.577436,-23.76017 -118.652566,-13.39224 -168.984816,4.56863 -46.95271,16.7549 -61.09628,101.63011 -41.68136,158.9346 9.30316,27.45891 16.92467,77.52855 -2.15337,106.72982 -16.23542,24.85027 -77.26174,23.61921 -99.8503,-0.82706 -31.04484,-33.59801 17.2771,-91.78108 9.69021,-136.89259 -5.30082,-31.51863 -15.23762,-67.08535 -37.68413,-88.1681 -32.72765,-30.73924 -48.67277,-40.75208 -63.88962,-62.57395 -17.02678,15.7993 1.52345,38.00924 7.90177,55.61331 z"
         style="fill:#5cff00;fill-opacity:1;stroke:#000000;stroke-width:5;stroke-miterlimit:4;stroke-opacity:1;stroke-dasharray:none;display:inline" />
      <path
         inkscape:transform-center-y="-1.270567"
         inkscape:transform-center-x="-2.950023"
         transform="matrix(-0.6081872,-0.34552359,-0.54522224,0.83571698,531.12665,150.34418)"
         d="m 525.78627,544.22937 c 0,2.37156 -1.92253,4.29408 -4.29408,4.29408 -2.37156,0 -4.29408,-1.92252 -4.29408,-4.29408 0,-2.37155 1.92252,-4.29408 4.29408,-4.29408 2.37155,0 4.29408,1.92253 4.29408,4.29408 z"
         sodipodi:ry="4.2940803"
         sodipodi:rx="4.2940803"
         sodipodi:cy="544.22937"
         sodipodi:cx="521.49219"
         id="path3781-6"
         style="fill:#000000;fill-opacity:1;fill-rule:nonzero;stroke:#000000;stroke-width:6.11384392;stroke-linecap:round;stroke-linejoin:round;stroke-miterlimit:4;stroke-opacity:1;stroke-dasharray:none;stroke-dashoffset:0;display:inline"
         sodipodi:type="arc" />
      <path
         transform="matrix(1.0615213,0,0,1.326023,-609.39408,-288.3608)"
         d="m 525.78627,544.22937 c 0,2.37156 -1.92253,4.29408 -4.29408,4.29408 -2.37156,0 -4.29408,-1.92252 -4.29408,-4.29408 0,-2.37155 1.92252,-4.29408 4.29408,-4.29408 2.37155,0 4.29408,1.92253 4.29408,4.29408 z"
         sodipodi:ry="4.2940803"
         sodipodi:rx="4.2940803"
         sodipodi:cy="544.22937"
         sodipodi:cx="521.49219"
         id="path3781"
         style="fill:#000000;fill-opacity:1;fill-rule:nonzero;stroke:#000000;stroke-width:2.47224665;stroke-linecap:round;stroke-linejoin:round;stroke-miterlimit:4;stroke-opacity:1;stroke-dasharray:none;stroke-dashoffset:0;display:inline"
         sodipodi:type="arc" />
      <path
         sodipodi:nodetypes="csccscscccsscc"
         inkscape:connector-curvature="0"
         id="path3783"
         d="m -77.376254,408.77369 c -0.90514,0.13427 -2.03464,0.42304 -3.40625,0.91181 -2.74322,0.97752 -6.3037,3.49274 -11.57394,6.49982 l 0.19894,0.3767 c 5.24085,-2.99031 8.9899,-4.74864 11.65625,-5.69878 2.66635,-0.95013 4.23906,-1.08027 5.0625,-0.87381 0.41172,0.10322 0.6262,0.25692 0.75,0.41791 0.1238,0.16099 0.1985,0.35473 0.21875,0.56988 0.0202,0.21515 0.37653,3.13777 0.33813,3.34989 0.66394,-1.47466 0.26851,-1.27646 0.66192,-3.50186 -0.0385,-0.40917 -0.17922,-0.83925 -0.46875,-1.21574 -0.28953,-0.37649 -0.72045,-0.65721 -1.28125,-0.79783 -0.5608,-0.14061 -1.25111,-0.17225 -2.15625,-0.0379 z"
         style="font-size:medium;font-style:normal;font-variant:normal;font-weight:normal;font-stretch:normal;text-indent:0;text-align:start;text-decoration:none;line-height:normal;letter-spacing:normal;word-spacing:normal;text-transform:none;direction:ltr;block-progression:tb;writing-mode:lr-tb;text-anchor:start;color:#000000;fill:#000000;fill-opacity:1;stroke:none;stroke-width:6.25;marker:none;visibility:visible;display:inline;overflow:visible;enable-background:accumulate;font-family:Sans;-inkscape-font-specification:Sans" />
      <path
         sodipodi:nodetypes="ccsccsc"
         inkscape:connector-curvature="0"
         id="path3785"
         d="m -53.626254,412.58644 -0.0682,-0.0894 c 3.70441,0.94303 6.02239,5.27458 7.94322,9.01746 1.92083,3.74288 3.27627,8.13364 4.75,11.6255 l 0.2786,-0.24186 c -1.42975,-3.38763 -2.18954,-8.14148 -4.18485,-12.0295 -1.99531,-3.88802 -4.67594,-7.25304 -8.71875,-8.28222 z"
         style="font-size:medium;font-style:normal;font-variant:normal;font-weight:normal;font-stretch:normal;text-indent:0;text-align:start;text-decoration:none;line-height:normal;letter-spacing:normal;word-spacing:normal;text-transform:none;direction:ltr;block-progression:tb;writing-mode:lr-tb;text-anchor:start;color:#000000;fill:#000000;fill-opacity:1;stroke:none;stroke-width:1px;marker:none;visibility:visible;display:inline;overflow:visible;enable-background:accumulate;font-family:Sans;-inkscape-font-specification:Sans" />
      <path
         transform="matrix(0.5152601,0,0.03824192,0.44785002,-374.42177,182.93359)"
         d="m 525.78627,544.22937 c 0,2.37156 -1.92253,4.29408 -4.29408,4.29408 -2.37156,0 -4.29408,-1.92252 -4.29408,-4.29408 0,-2.37155 1.92252,-4.29408 4.29408,-4.29408 2.37155,0 4.29408,1.92253 4.29408,4.29408 z"
         sodipodi:ry="4.2940803"
         sodipodi:rx="4.2940803"
         sodipodi:cy="544.22937"
         sodipodi:cx="521.49219"
         id="path3781-0-5"
         style="fill:#000000;fill-opacity:1;fill-rule:nonzero;stroke:none;display:inline"
         sodipodi:type="arc" />
      <path
         transform="matrix(0.5152601,0,0.03824192,0.44785002,-346.64458,189.46201)"
         d="m 525.78627,544.22937 c 0,2.37156 -1.92253,4.29408 -4.29408,4.29408 -2.37156,0 -4.29408,-1.92252 -4.29408,-4.29408 0,-2.37155 1.92252,-4.29408 4.29408,-4.29408 2.37155,0 4.29408,1.92253 4.29408,4.29408 z"
         sodipodi:ry="4.2940803"
         sodipodi:rx="4.2940803"
         sodipodi:cy="544.22937"
         sodipodi:cx="521.49219"
         id="path3781-0-5-0"
         style="fill:#000000;fill-opacity:1;fill-rule:nonzero;stroke:none;display:inline"
         sodipodi:type="arc" />
    </g>
    <flowRoot
       xml:space="preserve"
       id="flowRoot4001"
       style="font-size:40px;font-style:normal;font-weight:normal;line-height:125%;letter-spacing:0px;word-spacing:0px;fill:#ff0000;fill-opacity:1;stroke:none;display:inline;font-family:Sans"
       transform="matrix(5.9302256,-7.1674673,5.0692887,3.0317984,-3317.6263,3571.369)"
       inkscape:transform-center-x="-23.052007"
       inkscape:transform-center-y="65.806004"><flowRegion
         id="flowRegion4003"><rect
           id="rect4005"
           width="100.9593"
           height="64.902412"
           x="513.81073"
           y="264.51904"
           style="fill:#ff0000" /></flowRegion><flowPara
         id="flowPara4007"
         style="font-style:normal;font-variant:normal;font-weight:500;font-stretch:normal;fill:#ff0000;stroke:#000000;stroke-opacity:1;font-family:Times New Roman;-inkscape-font-specification:Times New Roman">?</flowPara></flowRoot>    <g
       id="g14"
       transform="matrix(0.09891633,0,0,-0.11493343,813.68612,978.40031)"
       style="fill:#000000;display:inline">
      <g
         id="g16"
         style="fill:#000000">
        <g
           id="g18"
           clip-path="url(#clipPath20)"
           style="fill:#000000">
          <path
             d="m 1.88672,933.52 348.52728,0 c 0,0 287.402,24.289 287.402,-217.614 0,-241.859 -247.761,-223.679 -295.058,-223.679 L 0,492.699 l 0,107.02 355.699,0 c 0,0 156.219,-7.203 156.219,116.187 0,119.172 -105.59,110.817 -160.043,110.817 -54.48,0 -350.05859,0 -350.05859,0 L 1.88672,933.52"
             style="fill:#000000;fill-opacity:1;fill-rule:nonzero;stroke:none"
             id="path24"
             inkscape:connector-curvature="0" />
          <path
             d="M 590.93,412.438 C 643.883,380.691 691.547,323.57 691.547,230.078 691.547,-11.7773 443.648,1.85547 396.352,1.85547 L 0,1.52344 0,108.672 l 406.695,0.066 c 0,0 157.938,-2.058 158.953,121.34 0.7,84.785 -53.226,149.317 -104.734,182.36 l 130.016,0"
             style="fill:#000000;fill-opacity:1;fill-rule:nonzero;stroke:none"
             id="path26"
             inkscape:connector-curvature="0" />
          <path
             d="m 1001.8,412.438 148.99,0 c 0,-67.208 0,-164.25 0,-211.579 0,-69.425 41.67,-92.187 82.95,-92.187 41.27,0 369.89,0 407.25,0 L 1641.57,0 c -39.31,0 -440.31,0 -491.41,0 -51.11,0 -148.36,33.0859 -148.36,171.094 0,152.718 0,241.344 0,241.344"
             style="fill:#000000;fill-opacity:1;fill-rule:nonzero;stroke:none"
             id="path28"
             inkscape:connector-curvature="0" />
          <path
             d="m 1642.05,599.062 c -37.35,0 -380.12,0.184 -421.4,0.184 -41.27,0 -70.49,4 -70.49,51.348 0,7.414 0,115.058 0.71,123.332 0,49.676 25.58,52.797 66.86,52.797 41.27,0 385.98,0 423.33,0 l 0.06,106.797 c -39.31,0 -480.28,0 -480.28,0 0,0 -159.04,10.621 -159.04,-159.461 0,-59.325 0,-116.563 0,-118.676 0,-152.727 113.97,-162.684 165.07,-162.684 51.11,0 434.92,0 474.25,0 l 0.93,106.363"
             style="fill:#000000;fill-opacity:1;fill-rule:nonzero;stroke:none"
             id="path30"
             inkscape:connector-curvature="0" />
          <path
             d="m 2707.92,933.281 c -22.43,-24.73 -230.6,-273.597 -257.05,-299.672 -43.97,-43.367 -122.81,-34.132 -186.65,-34.132 -64.84,0 -75.92,49.093 -75.92,82.457 0,33.394 -0.26,221.16 -0.26,251.347 l -148.27,0 c 0,-31.781 0.55,-292.484 0.55,-333.804 0,-32.84 15.41,-107.165 147.44,-107.165 24.83,0 251.77,0.368 254.35,0.387 32.74,0.239 81.96,19.934 138.52,86.793 16.73,19.774 258.46,310.59 297.71,353.789 l -170.42,0"
             style="fill:#000000;fill-opacity:1;fill-rule:nonzero;stroke:none"
             id="path32"
             inkscape:connector-curvature="0" />
          <path
             d="m 2561.98,345.512 c -31.14,33.633 -59.48,66.926 -157.38,66.926 0,0 -65.58,0 -216.84,0 -108.49,0 -147.08,-78.704 -147.08,-120.036 0,-41.316 0,-259.2106 0,-290.99575 l 147.71,0.48047 c 0,30.18358 0.27,217.16828 0.27,250.55828 0,33.364 9.79,52.235 74.65,52.235 63.84,0 53.88,-0.344 61.08,-0.293 61.06,0.398 95.3,-2.176 126.85,-33.617 26.31,-26.196 242.62,-242.7817 267.48,-268.93406 l 169.98,0 C 2847.01,46.4648 2579.58,326.504 2561.98,345.512"
             style="fill:#000000;fill-opacity:1;fill-rule:nonzero;stroke:none"
             id="path34"
             inkscape:connector-curvature="0" />
          <path
             d="M 3804.3,932.965 C 3781.88,908.23 3573.71,659.363 3547.26,633.293 3503.29,589.926 3424.45,599.16 3360.61,599.16 c -64.84,0 -75.93,49.094 -75.93,82.457 0,33.395 -0.25,221.16 -0.25,251.348 l -148.27,0 c 0,-31.785 0.54,-292.488 0.54,-333.805 0,-32.844 15.41,-107.164 147.45,-107.164 24.83,0 251.76,0.371 254.35,0.391 32.74,0.234 81.95,19.925 138.52,86.789 16.73,19.773 258.45,310.59 297.71,353.789 l -170.43,0"
             style="fill:#000000;fill-opacity:1;fill-rule:nonzero;stroke:none"
             id="path36"
             inkscape:connector-curvature="0" />
          <path
             d="m 3658.36,345.199 c -31.13,33.633 -59.48,66.914 -157.37,66.914 0,0 -65.58,0 -216.84,0 -108.49,0 -147.08,-78.691 -147.08,-120.027 0,-41.32 0,-259.2032 0,-291.00006 l 147.71,0.48437 c 0,30.17579 0.26,217.16369 0.26,250.56269 0,33.359 9.8,52.226 74.65,52.226 63.85,0 53.89,-0.339 61.09,-0.293 61.06,0.403 95.3,-2.168 126.84,-33.613 26.32,-26.191 242.63,-242.785 267.48,-268.94128 l 169.98,0 C 3943.39,46.1406 3675.96,326.188 3658.36,345.199"
             style="fill:#000000;fill-opacity:1;fill-rule:nonzero;stroke:none"
             id="path38"
             inkscape:connector-curvature="0" />
        </g>
      </g>
    </g>
    <ellipse
       stroke-miterlimit="12"
       cx="309.07001"
       cy="400.25"
       rx="232.92999"
       ry="114"
       id="ellipse7-0"
       style="fill:none;stroke:#020202;stroke-width:3.74136615;stroke-linecap:round;stroke-linejoin:bevel;stroke-miterlimit:12;stroke-opacity:1;stroke-dasharray:3.74136605, 11.22409814;stroke-dashoffset:0;display:inline"
       sodipodi:cx="309.07001"
       sodipodi:cy="400.25"
       sodipodi:rx="232.92999"
       sodipodi:ry="114"
       transform="matrix(0.72356219,0,0,0.96913221,80.783976,543.04852)" />
    <path
       stroke-miterlimit="12"
       d="m 136.86001,933.14742 c 53.90539,-3.89978 97.03765,-45.79049 139.6475,-110.98886"
       id="path9-5"
       style="fill:none;stroke:#020202;stroke-width:3.13299441;stroke-linecap:round;stroke-linejoin:bevel;stroke-miterlimit:12;stroke-opacity:1;stroke-dasharray:3.13299459, 9.39898378;stroke-dashoffset:0;display:inline"
       inkscape:connector-curvature="0" />
    <line
       stroke-miterlimit="12"
       x1="136.85995"
       y1="933.14734"
       x2="471.03735"
       y2="933.14734"
       id="line11-7"
       style="fill:none;stroke:#020202;stroke-width:3.59875226;stroke-linecap:round;stroke-linejoin:bevel;stroke-miterlimit:12;stroke-opacity:1;stroke-dasharray:3.59875197, 7.19750394;stroke-dashoffset:0;display:inline" />
    <path
       stroke-miterlimit="12"
       d="m 221.5929,931.21441 c 0,0 17.43527,-8.4451 17.84224,-33.2582 0.12832,-7.8104 -0.6431,-10.05656 -2.56431,-16.92732 l -0.85501,-2.30408 c -1.02363,-0.12329 -2.68236,1.74381 -10.60765,12.40093 -3.69428,4.96777 -9.331,13.8253 -11.44434,18.45714 0,0 -8.48115,-6.26091 -3.01965,-33.01944 0,0 -12.96663,7.96646 -18.93558,22.54015 -5.99308,14.62843 -3.99929,18.22976 -6.41983,30.90651 -1.92487,10.07326 -0.66802,16.823 -0.66802,16.823 0,0 -8.51197,-38.60019 5.26789,-59.81622 10.31656,-15.88332 18.04975,-17.51236 22.18105,-21.69044 l 3.41857,4.32177 c 0,0 2.29514,2.00636 2.01138,5.28514 -0.33805,3.9021 -3.85045,22.59697 -3.85045,22.59697 13.09273,-23.41566 21.5064,-28.0496 25.62892,-30.61927 l 2.27906,4.03339 c 10.54164,33.56627 -3.97514,51.53557 -8.88521,55.0903 -3.43542,2.48814 -11.37906,5.17967 -11.37906,5.17967 z m 58.78208,-31.62089 c -5.11759,4.63293 -24.24081,27.23186 -24.24081,27.23186 l -8.26705,5.27167 c 0,0 4.73995,-18.396 10.73525,-31.33442 15.64164,-33.75233 37.14295,-36.89157 37.14295,-36.89157 0,0 10.47638,12.70478 7.89084,30.10037 -3.97513,26.73579 -14.21175,33.44314 -14.21175,33.44314 l -11.21334,5.03401 c 0,0 6.23509,-7.9519 11.01904,-15.77783 7.29982,-11.93988 7.51174,-21.72869 7.51174,-21.72869 0,0 -6.37735,-4.39312 -16.36687,4.65146 z m -8.5024,0 c 11.05273,-12.14556 16.48713,-12.48154 25.29455,-12.14556 0,0 1.42917,-3.0576 -1.48782,-10.33669 l -2.55036,-4.12226 c -1.90507,-0.0549 -12.31546,2.77335 -21.87379,14.5592 -4.15773,5.12803 -7.73172,12.23036 -15.11221,31.42645 0,0 10.12881,-13.22667 15.72963,-19.38114 z m 50.11322,-7.69462 c 19.60725,-32.61836 41.21337,-28.7928 41.21337,-28.7928 4.25669,3.11859 5.66825,12.08153 4.51408,19.43193 -1.36169,8.66938 -7.62758,15.505 -7.62758,15.505 0,0 -10.13837,-7.32042 -18.22206,-2.95525 -12.17466,6.57307 -26,31.3987 -26,31.3987 l -11.81682,6.72606 c 0,0 4.48035,-18.92335 17.93901,-41.31364 z m -8.74438,28.99741 c 1.2583,0.55092 6.64647,-10.99917 18.74488,-24.89063 13.07808,-15.01817 28.09937,-7.26565 28.09937,-7.26565 0,0 2.54891,-2.84671 2.73878,-9.30302 0.23682,-8.01092 -1.88746,-9.56141 -1.88746,-9.56141 -11.47952,-1.0337 -23.34107,8.86368 -29.12155,16.02185 -12.33968,15.2786 -18.57402,34.99886 -18.57402,34.99886 z m 59.34815,3.42885 c 5.7768,4.45294 14.00202,6.48519 21.93832,0.79578 16.74229,-12.00499 17.14928,-29.906 17.14928,-29.906 3.02849,0.94579 -17.15585,-15.00265 -38.28391,25.5399 -1.39031,0.84346 -8.61972,5.0928 -8.61972,5.0928 0,0 9.71302,-38.14437 27.42251,-54.65927 10.82767,-10.09891 25.33419,-8.46055 32.29669,-8.46055 l -4.67687,5.08149 c 0,0 -13.17925,-2.58417 -24.4447,7.23567 -9.03328,7.87444 -13.35889,16.97175 -22.4758,37.52522 0,0 9.93522,-16.07661 17.79966,-21.76182 11.75746,-8.49877 27.9527,-2.97488 27.9527,-2.97488 0,0 0.9489,36.95989 -25.94422,47.24182 -15.53753,5.94226 -25.12443,-3.1383 -27.93073,-5.40611 l 7.81679,-5.34405 z"
       id="path13-2"
       style="fill:#5f5ca9;stroke:#020202;stroke-width:3.63601255;stroke-linecap:round;stroke-linejoin:bevel;stroke-miterlimit:12;stroke-opacity:1;stroke-dasharray:none;display:inline"
       inkscape:connector-curvature="0" />
    <path
       stroke-miterlimit="12"
       d="m 136.86001,933.14742 c 66.56772,12.7702 95.14843,43.10301 103.77547,99.31278"
       id="path15-6"
       style="fill:none;stroke:#020202;stroke-width:2.9777422;stroke-linecap:round;stroke-linejoin:bevel;stroke-miterlimit:12;stroke-opacity:1;stroke-dasharray:2.97774213, 8.93322642;stroke-dashoffset:0;display:inline"
       inkscape:connector-curvature="0" />
    <path
       stroke-miterlimit="12"
       d="m 285.05501,825.08361 c 0,6.95837 -4.21108,12.59869 -9.4063,12.59869 -5.19517,0 -9.40631,-5.64032 -9.40631,-12.59869 0,-6.95836 4.21114,-12.59872 9.40631,-12.59872 5.19522,0 9.4063,5.64036 9.4063,12.59872 z m -46.00189,196.73379 c -5.59459,0 -10.12987,6.0746 -10.12987,13.568 0,7.4931 4.53528,13.5676 10.12987,13.5676 7.52361,0 10.12986,-6.0722 10.12986,-13.5676 0,-4.9106 -4.53527,-13.568 -10.12986,-13.568 z M 136.00123,923.23146 c -5.29505,0 -9.58719,5.7489 -9.58719,12.84101 0,7.09124 4.29214,12.84102 9.58719,12.84102 5.29502,0 9.58718,-5.74978 9.58718,-12.84102 0,-7.09211 -4.29216,-12.84101 -9.58718,-12.84101 z m 334.1772,-0.36127 c -5.44409,0 -9.85781,5.9116 -9.85781,13.20348 0,7.29187 4.41372,13.20249 9.85781,13.20249 5.44336,0 9.85708,-5.91062 9.85708,-13.20249 0,-7.2928 -4.41372,-13.20348 -9.85708,-13.20348 z"
       id="path17-2"
       style="fill:#c89369;stroke:#020202;stroke-width:2.51218009;stroke-linecap:round;stroke-linejoin:bevel;stroke-miterlimit:12;stroke-opacity:1;display:inline"
       inkscape:connector-curvature="0" />
    <text
       xml:space="preserve"
       style="font-size:58.07672882px;font-style:normal;font-weight:normal;line-height:125%;letter-spacing:0px;word-spacing:0px;fill:#000000;fill-opacity:1;stroke:none;display:inline;font-family:Sans"
       x="918.95978"
       y="396.18781"
       id="text5540"
       sodipodi:linespacing="125%"
       transform="scale(0.70022196,1.4281186)"><tspan
         sodipodi:role="line"
         x="918.95978"
         y="396.18781"
         id="tspan5548"
         style="font-size:52.78583908px;font-style:normal;font-variant:normal;font-weight:bold;font-stretch:normal;text-align:center;text-anchor:middle;font-family:Tlwg Typo;-inkscape-font-specification:Tlwg Typo Bold">Programmerinskonkurranse 13. mars kl 17:00 i</tspan><tspan
         sodipodi:role="line"
         x="918.95978"
         y="462.1701"
         style="font-size:52.78583908px;font-style:normal;font-variant:normal;font-weight:bold;font-stretch:normal;text-align:center;text-anchor:middle;font-family:Tlwg Typo;-inkscape-font-specification:Tlwg Typo Bold"
         id="tspan5586"> Assembler og Limbo på IFI2. For mer info og</tspan><tspan
         sodipodi:role="line"
         x="934.78522"
         y="528.1524"
         style="font-size:52.78583908px;font-style:normal;font-variant:normal;font-weight:bold;font-stretch:normal;text-align:center;text-anchor:middle;font-family:Tlwg Typo;-inkscape-font-specification:Tlwg Typo Bold"
         id="tspan5594"> registrering av lag se foreninger.uio.no/maps.  </tspan></text>
    <flowRoot
       xml:space="preserve"
       id="flowRoot4746"
       style="fill:black;stroke:none;stroke-opacity:1;stroke-width:1px;stroke-linejoin:miter;stroke-linecap:butt;fill-opacity:1;font-family:Sans;font-style:normal;font-weight:normal;font-size:40px;line-height:125%;letter-spacing:0px;word-spacing:0px"><flowRegion
         id="flowRegion4748"><rect
           id="rect4750"
           width="952.96771"
           height="378.51523"
           x="-356.2496"
           y="714.84412" /></flowRegion><flowPara
         id="flowPara4752"></flowPara></flowRoot>    <path
       style="fill:#5cff00;fill-opacity:1;stroke:#000000;stroke-width:4.60521364;stroke-linecap:butt;stroke-linejoin:round;stroke-miterlimit:4;stroke-opacity:1;stroke-dasharray:none;display:inline"
       d="M 128.84503,466.6707 C 441.41045,493.21903 774.79112,298.39815 1270.126,289.71747 l 1.2246,46.69192 C 880.27437,274.51681 509.64955,531.51619 124.08914,489.75112 z"
       id="path4068"
       inkscape:connector-curvature="0"
       sodipodi:nodetypes="ccccc" />
    <text
       xml:space="preserve"
       style="font-size:61.4028511px;font-style:normal;font-weight:normal;line-height:125%;letter-spacing:0px;word-spacing:0px;fill:#000000;fill-opacity:1;stroke:none;display:inline;font-family:Sans"
       x="1387.6554"
       y="-37.751801"
       id="text4070"
       sodipodi:linespacing="125%"
       transform="scale(0.9915078,1.0085649)"><tspan
         sodipodi:role="line"
         id="tspan4072"
         x="1387.6554"
         y="-37.751801">-</tspan></text>
    <path
       style="fill:none;stroke:#000000;stroke-width:1.53507113px;stroke-linecap:butt;stroke-linejoin:miter;stroke-opacity:1;display:inline"
       d="M 132.02045,465.13371 C 337.45958,511.31716 926.01351,264.55581 1286.0579,293.17632"
       id="path4768"
       sodipodi:nodetypes="cc"
       inkscape:connector-curvature="0" />
    <flowRoot
       xml:space="preserve"
       id="flowRoot3136"
       style="font-size:40px;font-style:normal;font-weight:normal;line-height:125%;letter-spacing:0px;word-spacing:0px;fill:#5cff00;fill-opacity:1;stroke:none;display:inline;font-family:Sans"
       transform="matrix(1.522035,0,0,1.5482191,260.44867,-108.81142)"><flowRegion
         id="flowRegion3138"><rect
           id="rect3140"
           width="650.15613"
           height="196.52448"
           x="50.239338"
           y="40.187256"
           style="fill:#5cff00;fill-opacity:1" /></flowRegion><flowPara
         id="flowPara3142"
         style="font-size:180px;font-style:normal;font-variant:normal;font-weight:bold;font-stretch:normal;fill:#5cff00;fill-opacity:1;stroke:#000000;stroke-width:4;stroke-miterlimit:4;stroke-opacity:1;stroke-dasharray:none;font-family:Tlwg Typo;-inkscape-font-specification:Tlwg Typo Bold"><flowSpan
           style="line-height:123.00000191%;letter-spacing:12.36999035px;fill:#5cff00;fill-opacity:1;stroke:#000000;stroke-width:4;stroke-miterlimit:4;stroke-opacity:1;stroke-dasharray:none"
           id="flowSpan3154">M<flowSpan
   style="letter-spacing:4.62999916px;fill:#5cff00;fill-opacity:1;stroke:#000000;stroke-width:4;stroke-miterlimit:4;stroke-opacity:1;stroke-dasharray:none"
   id="flowSpan3414">A</flowSpan></flowSpan><flowSpan
           style="letter-spacing:-16.12998009px;fill:#5cff00;fill-opacity:1;stroke:#000000;stroke-width:4;stroke-miterlimit:4;stroke-opacity:1;stroke-dasharray:none"
           id="flowSpan3416">PS</flowSpan></flowPara></flowRoot>    <text
       xml:space="preserve"
       style="font-size:40px;font-style:normal;font-weight:normal;line-height:125%;letter-spacing:0px;word-spacing:0px;fill:#5cff00;fill-opacity:1;stroke:none;display:inline;font-family:Sans"
       id="text4236"
       sodipodi:linespacing="125%"
       transform="matrix(1.522035,0,0,1.5482191,146.61572,-32.015134)"><textPath
         xlink:href="#path5271"
         id="textPath4242"
         style="font-size:75px;fill:#5cff00;fill-opacity:1"><tspan
   id="tspan4240"
   style="font-size:78.17227173px;font-variant:normal;font-weight:bold;font-stretch:normal;fill:#5cff00;fill-opacity:1;stroke:#000000;stroke-width:4;stroke-miterlimit:4;stroke-opacity:1;font-family:Tlwg Typo;-inkscape-font-specification:Tlwg Typo Bold"
   y="203.43675"
   x="33.291401">PYTHON CHALLENGE</tspan></textPath></text>
    <flowRoot
       xml:space="preserve"
       id="flowRoot4865"
       style="fill:black;stroke:none;stroke-opacity:1;stroke-width:1px;stroke-linejoin:miter;stroke-linecap:butt;fill-opacity:1;font-family:Sans;font-style:normal;font-weight:normal;font-size:40px;line-height:125%;letter-spacing:0px;word-spacing:0px"><flowRegion
         id="flowRegion4867"><rect
           id="rect4869"
           width="672.42114"
           height="287.22626"
           x="-233.7888"
           y="-376.17032" /></flowRegion><flowPara
         id="flowPara4871"></flowPara></flowRoot>  </g>
</svg>
